<svg width="16" height="16" viewBox="0 0 16 16" fill="none" xmlns="http://www.w3.org/2000/svg">
<path d="M6.11071 4.51071C6.29643 4.11071 6.4 3.67143 6.4 3.2C6.4 1.43214 4.96786 0 3.2 0C1.43214 0 0 1.43214 0 3.2C0 4.96786 1.43214 6.4 3.2 6.4C3.67143 6.4 4.11071 6.29643 4.51071 6.11071L6.4 8L4.51071 9.88929C4.11071 9.70357 3.67143 9.6 3.2 9.6C1.43214 9.6 0 11.0321 0 12.8C0 14.5679 1.43214 16 3.2 16C4.96786 16 6.4 14.5679 6.4 12.8C6.4 12.3286 6.29643 11.8893 6.11071 11.4893L8 9.6L13.6 15.2H16V14.4L6.11071 4.51071ZM3.2 4.8C2.32143 4.8 1.6 4.08929 1.6 3.2C1.6 2.31071 2.32143 1.6 3.2 1.6C4.07857 1.6 4.8 2.31071 4.8 3.2C4.8 4.08929 4.07857 4.8 3.2 4.8ZM3.2 14.4C2.32143 14.4 1.6 13.6893 1.6 12.8C1.6 11.9107 2.32143 11.2 3.2 11.2C4.07857 11.2 4.8 11.9107 4.8 12.8C4.8 13.6893 4.07857 14.4 3.2 14.4ZM8 8.4C7.775 8.4 7.6 8.225 7.6 8C7.6 7.775 7.775 7.6 8 7.6C8.225 7.6 8.4 7.775 8.4 8C8.4 8.225 8.225 8.4 8 8.4ZM13.6 0.8L8.8 5.6L10.4 7.2L16 1.6V0.8H13.6Z" fill="#731E6A"/>
</svg>
