<svg height="88" viewBox="0 0 55 88" width="55" xmlns="http://www.w3.org/2000/svg"><path d="m3.21190598 83.0881473-3.21190598-6.9876445h45.9111026l-3.2100159 6.9876445h-10.2934719c-6.5315476 0-9.4467082 4.9118527-9.4467082 4.9118527s-2.9139006-4.9118527-9.4454481-4.9118527zm24.49719542-28.9259535 15.2528909-9.2923767v20.1161555s0 1.8962342 1.4014182 2.3643929v.0019134s.3871355.1077914.4039675.7354047l.1034855 1.7520872h-19.0700099l.1034855-1.7520872c.0174554-.6276133.4033441-.7354047.4033441-.7354047l.0012469-.0019134c1.4001713-.4681587 1.4001713-2.3643929 1.4001713-2.3643929zm19.6121845-54.1621938h7.1231585l-2.7227155 11.4841114-.0024985-.0025132c-.3722731 1.3973445-1.6371272 2.4283888-3.143709 2.4283888l-1.8163929-.0043981c-1.7995282 0-3.2586389 1.4677144-3.2586389 3.2778536v13.1868109l6.0007176-3.039727v8.458207s-.00812 2.1318301-1.740814 3.168529l-18.9984208 11.3641057c-8.2905721 5.5592197-11.4873737 8.1547369-11.4480227 14.639446.0449726.4925891.2698355 1.7592468 1.3916518 2.1280603v.0018849s.3885132.1061831.4053779.725061l.1036868 1.7259467h-19.10710459l.10368681-1.7259467c.01686472-.6188779.40537793-.725061.40537793-.725061v-.0018849c1.35604851-.4454664 1.40164572-2.2015716 1.4041442-2.3178076v-39.3518363s.0031231-1.8547487-1.028748-2.4981304v-.0006283c-.11805305-.0760246-.55153885-.3914324-.66834266-.9487366l-.14990863-.955648 1.84699929-.928631 15.28068675-7.6866516v32.058502c3.0768747-2.0482658 6.7758703-4.0839656 10.9164716-6.3276335v-18.9169289c0-10.61202765 8.5529122-19.2147442 19.103357-19.2147442z" fill="#ffffff" fill-rule="evenodd"/></svg>