<svg height="60" viewBox="0 0 100 60" width="100" xmlns="http://www.w3.org/2000/svg"><path d="m99.6280822.34275588c-2.4556511 2.78461149-6.5107493 4.55066303-10.6615644 4.6435083l-1.2365726.02787847-19.7841609-1.69809775c-21.8421994-1.87432954-21.0737151-1.81309646-22.696904-1.81309646-16.0939365 0-29.5597816 11.36794556-31.3824015 26.49251546-.0852206.7071673-.1826869 3.7222741-.1204584 3.7222741.0164943 0 .2411667-.301685.4993274-.6705769 3.977625-5.6817325 10.1927265-9.1665418 17.3587493-9.7330722 2.0400448-.1612969 1.9288333-.1692621 23.4269017 1.6956086 10.8207594.9384094 20.1382885 1.7287143 20.7053425 1.756095 11.3175876.5453726 21.6095298-6.9840556 23.7842781-17.40015036.3408821-1.6321353.5907956-5.83058367.4288517-7.20260285l-.0192433-.16303929zm-14.1788486 29.04015992c-2.4139155 2.3524951-5.5148436 3.7767864-9.0128843 4.1397044-1.4709915.1525849-1.3115466.1642839-22.2373129-1.6129688-23.000799-1.9534845-20.9869951-1.8011486-23.3214381-1.7630646-13.1554524.2155604-24.66822257 7.9717501-29.14367547 19.634162-1.15959914 3.0218274-1.78088437 6.3617681-1.73115156 9.3051874l.01699412 1.012586.29814694-.4378414c4.28201977-6.2868448 11.47728247-9.9722795 19.43103297-9.9528641 1.4712414.0034848 1.6529286.0179219 21.3231289 1.7092989 21.4825738 1.8471978 21.3623653 1.837988 23.0492822 1.7573395 11.4667861-.5476128 20.5788862-8.4606189 21.9664065-19.0758457.0792226-.6073525.1781884-4.8695231.1227076-5.2919317-.0179938-.1374011-.0672268-.1003127-.7612369.5762381" fill="#0001D0" fill-rule="evenodd"/></svg>